<mxfile host="Electron" modified="2024-05-20T16:41:07.910Z" agent="Mozilla/5.0 (Windows NT 10.0; Win64; x64) AppleWebKit/537.36 (KHTML, like Gecko) draw.io/24.4.0 Chrome/120.0.6099.109 Electron/28.1.0 Safari/537.36" etag="bzrQI59r7iFPsPHQSMhS" version="24.4.0" type="device" pages="2">
  <diagram name="PÃ¡gina-1" id="-c4BR9bMxaS-QCUniL5t">
    <mxGraphModel dx="2074" dy="836" grid="1" gridSize="10" guides="1" tooltips="1" connect="1" arrows="1" fold="1" page="1" pageScale="1" pageWidth="827" pageHeight="1169" math="0" shadow="0">
      <root>
        <mxCell id="0" />
        <mxCell id="1" parent="0" />
        <mxCell id="e0J9FLYbTgoCGfD9f5cc-86" value="&lt;font style=&quot;font-size: 8px;&quot; data-font-src=&quot;https://fonts.googleapis.com/css?family=Linux+Libertine&quot; face=&quot;Linux Libertine&quot;&gt;deploy()&lt;/font&gt;" style="text;html=1;align=center;verticalAlign=middle;whiteSpace=wrap;rounded=0;" parent="1" vertex="1">
          <mxGeometry x="9.659999999999997" y="27" width="60" height="30" as="geometry" />
        </mxCell>
        <mxCell id="e0J9FLYbTgoCGfD9f5cc-87" value="&lt;font style=&quot;font-size: 8px;&quot; data-font-src=&quot;https://fonts.googleapis.com/css?family=Linux+Libertine&quot; face=&quot;Linux Libertine&quot;&gt;flare()&lt;/font&gt;" style="text;html=1;align=center;verticalAlign=middle;whiteSpace=wrap;rounded=0;" parent="1" vertex="1">
          <mxGeometry x="96.08" y="26.5" width="49" height="30" as="geometry" />
        </mxCell>
        <mxCell id="WiIBReAVdP6lDB38uRff-66" value="" style="rounded=1;whiteSpace=wrap;html=1;fontColor=default;fillColor=#FFF2CC;arcSize=6;fillStyle=auto;strokeColor=#ffa348;" parent="1" vertex="1">
          <mxGeometry y="60" width="146.66" height="144" as="geometry" />
        </mxCell>
        <mxCell id="WiIBReAVdP6lDB38uRff-80" value="&lt;div style=&quot;font-size: 8px;&quot; align=&quot;center&quot;&gt;&lt;font style=&quot;font-size: 8px;&quot;&gt;Invoker 1&lt;/font&gt;&lt;/div&gt;&lt;div style=&quot;font-size: 8px;&quot; align=&quot;center&quot;&gt;&lt;font style=&quot;font-size: 8px;&quot;&gt;&lt;br&gt;&lt;/font&gt;&lt;/div&gt;&lt;div style=&quot;font-size: 9px;&quot; align=&quot;center&quot;&gt;&lt;font style=&quot;font-size: 9px;&quot;&gt;&lt;br&gt;&lt;/font&gt;&lt;/div&gt;&lt;div style=&quot;font-size: 9px;&quot; align=&quot;center&quot;&gt;&lt;font style=&quot;font-size: 9px;&quot;&gt;&lt;br&gt;&lt;/font&gt;&lt;/div&gt;&lt;div style=&quot;font-size: 9px;&quot; align=&quot;center&quot;&gt;&lt;font style=&quot;font-size: 9px;&quot;&gt;&lt;br&gt;&lt;/font&gt;&lt;/div&gt;&lt;div style=&quot;font-size: 9px;&quot; align=&quot;center&quot;&gt;&lt;font style=&quot;font-size: 9px;&quot;&gt;&lt;br&gt;&lt;/font&gt;&lt;/div&gt;" style="rounded=0;whiteSpace=wrap;html=1;fillColor=#f8cecc;strokeColor=#b85450;fontFamily=Linux Libertine;fontSource=https%3A%2F%2Ffonts.googleapis.com%2Fcss%3Ffamily%3DLinux%2BLibertine;align=center;fontColor=#B85450;direction=north;" parent="1" vertex="1">
          <mxGeometry x="4.0800000000000125" y="100" width="44" height="65" as="geometry" />
        </mxCell>
        <mxCell id="DSR_Bw5S6EjoULPKQs4j-5" value="" style="shape=image;verticalLabelPosition=bottom;labelBackgroundColor=default;verticalAlign=top;aspect=fixed;imageAspect=0;image=https://cdn-icons-png.flaticon.com/512/4703/4703650.png;" parent="1" vertex="1">
          <mxGeometry x="58.33000000000001" width="30" height="30" as="geometry" />
        </mxCell>
        <mxCell id="e0J9FLYbTgoCGfD9f5cc-37" value="" style="rounded=1;whiteSpace=wrap;html=1;strokeColor=#666666;fillColor=#999999;direction=south;" parent="1" vertex="1">
          <mxGeometry x="6.3300000000000125" y="114.74000000000001" width="39.5" height="45.09" as="geometry" />
        </mxCell>
        <mxCell id="e0J9FLYbTgoCGfD9f5cc-10" style="edgeStyle=orthogonalEdgeStyle;rounded=0;orthogonalLoop=1;jettySize=auto;html=1;entryX=1;entryY=0.5;entryDx=0;entryDy=0;curved=1;strokeWidth=0.5;" parent="1" source="e0J9FLYbTgoCGfD9f5cc-7" target="e0J9FLYbTgoCGfD9f5cc-46" edge="1">
          <mxGeometry relative="1" as="geometry">
            <mxPoint x="119.33000000000004" y="110.17000000000002" as="targetPoint" />
            <Array as="points">
              <mxPoint x="120.33000000000004" y="70" />
            </Array>
          </mxGeometry>
        </mxCell>
        <mxCell id="e0J9FLYbTgoCGfD9f5cc-11" style="edgeStyle=orthogonalEdgeStyle;rounded=0;orthogonalLoop=1;jettySize=auto;html=1;entryX=1;entryY=0.5;entryDx=0;entryDy=0;strokeWidth=0.5;" parent="1" source="e0J9FLYbTgoCGfD9f5cc-7" target="e0J9FLYbTgoCGfD9f5cc-60" edge="1">
          <mxGeometry relative="1" as="geometry">
            <mxPoint x="73.33000000000004" y="110" as="targetPoint" />
          </mxGeometry>
        </mxCell>
        <mxCell id="e0J9FLYbTgoCGfD9f5cc-79" style="edgeStyle=orthogonalEdgeStyle;rounded=0;orthogonalLoop=1;jettySize=auto;html=1;entryX=1;entryY=0.5;entryDx=0;entryDy=0;curved=1;exitX=0;exitY=0.5;exitDx=0;exitDy=0;strokeWidth=0.5;" parent="1" source="e0J9FLYbTgoCGfD9f5cc-7" target="WiIBReAVdP6lDB38uRff-80" edge="1">
          <mxGeometry relative="1" as="geometry">
            <Array as="points">
              <mxPoint x="26.330000000000013" y="70" />
            </Array>
          </mxGeometry>
        </mxCell>
        <mxCell id="e0J9FLYbTgoCGfD9f5cc-7" value="&lt;div style=&quot;font-size: 8px;&quot; align=&quot;center&quot;&gt;&lt;font color=&quot;#d79b00&quot; style=&quot;font-size: 8px;&quot;&gt;Controller&lt;/font&gt;&lt;/div&gt;" style="rounded=0;whiteSpace=wrap;html=1;fillColor=#ffe6cc;strokeColor=#d79b00;align=center;fontFamily=Linux Libertine;fontSource=https%3A%2F%2Ffonts.googleapis.com%2Fcss%3Ffamily%3DLinux%2BLibertine;" parent="1" vertex="1">
          <mxGeometry x="46.83000000000001" y="60" width="53" height="20" as="geometry" />
        </mxCell>
        <mxCell id="WiIBReAVdP6lDB38uRff-113" value="" style="rounded=1;whiteSpace=wrap;html=1;strokeColor=#2496ED;fillColor=#A9C4EB;direction=south;" parent="1" vertex="1">
          <mxGeometry x="6.3300000000000125" y="125.41" width="39.5" height="35.09" as="geometry" />
        </mxCell>
        <mxCell id="e0J9FLYbTgoCGfD9f5cc-31" value="" style="endArrow=none;html=1;rounded=0;strokeColor=#999999;curved=0;dashed=1;dashPattern=1 1;" parent="1" edge="1">
          <mxGeometry width="50" height="50" relative="1" as="geometry">
            <mxPoint x="25.99999999999997" y="148.83" as="sourcePoint" />
            <mxPoint x="25.99999999999997" y="115.73999999999998" as="targetPoint" />
          </mxGeometry>
        </mxCell>
        <mxCell id="e0J9FLYbTgoCGfD9f5cc-32" value="" style="endArrow=none;html=1;rounded=1;strokeColor=#999999;dashed=1;dashPattern=1 1;curved=0;" parent="1" edge="1">
          <mxGeometry width="50" height="50" relative="1" as="geometry">
            <mxPoint x="26.080000000000013" y="135.31" as="sourcePoint" />
            <mxPoint x="36.08000000000001" y="135.31" as="targetPoint" />
            <Array as="points">
              <mxPoint x="16.080000000000013" y="135.31" />
            </Array>
          </mxGeometry>
        </mxCell>
        <mxCell id="e0J9FLYbTgoCGfD9f5cc-33" value="" style="endArrow=none;html=1;rounded=1;strokeColor=#999999;dashed=1;dashPattern=1 1;curved=0;" parent="1" edge="1">
          <mxGeometry width="50" height="50" relative="1" as="geometry">
            <mxPoint x="26.659999999999997" y="149.24999999999997" as="sourcePoint" />
            <mxPoint x="36.66" y="149.24999999999997" as="targetPoint" />
            <Array as="points">
              <mxPoint x="16.659999999999997" y="149.24999999999997" />
            </Array>
          </mxGeometry>
        </mxCell>
        <mxCell id="e0J9FLYbTgoCGfD9f5cc-25" value="&lt;font style=&quot;font-size: 6px;&quot; data-font-src=&quot;https://fonts.googleapis.com/css?family=Linux+Libertine&quot; face=&quot;Linux Libertine&quot;&gt;shm&lt;/font&gt;" style="text;html=1;align=center;verticalAlign=middle;whiteSpace=wrap;rounded=0;" parent="1" vertex="1">
          <mxGeometry x="15.499999999999972" y="114.74000000000001" width="21.16" height="10" as="geometry" />
        </mxCell>
        <mxCell id="e0J9FLYbTgoCGfD9f5cc-44" value="" style="endArrow=none;html=1;rounded=1;strokeColor=#000000;dashed=1;dashPattern=1 1;curved=0;" parent="1" edge="1">
          <mxGeometry width="50" height="50" relative="1" as="geometry">
            <mxPoint x="25.080000000000013" y="135.31" as="sourcePoint" />
            <mxPoint x="35.08000000000001" y="135.31" as="targetPoint" />
            <Array as="points">
              <mxPoint x="15.080000000000013" y="135.31" />
            </Array>
          </mxGeometry>
        </mxCell>
        <mxCell id="e0J9FLYbTgoCGfD9f5cc-21" value="" style="rounded=1;whiteSpace=wrap;html=1;fillColor=#d5e8d4;strokeColor=#82b366;" parent="1" vertex="1">
          <mxGeometry x="10.330000000000013" y="130.41" width="10" height="10" as="geometry" />
        </mxCell>
        <mxCell id="e0J9FLYbTgoCGfD9f5cc-22" value="" style="rounded=1;whiteSpace=wrap;html=1;fillColor=#d5e8d4;strokeColor=#82b366;" parent="1" vertex="1">
          <mxGeometry x="31.659999999999997" y="130.41" width="10" height="10" as="geometry" />
        </mxCell>
        <mxCell id="e0J9FLYbTgoCGfD9f5cc-45" value="" style="endArrow=none;html=1;rounded=1;strokeColor=#000000;dashed=1;dashPattern=1 1;curved=0;" parent="1" edge="1">
          <mxGeometry width="50" height="50" relative="1" as="geometry">
            <mxPoint x="25.50000000000003" y="149.25" as="sourcePoint" />
            <mxPoint x="35.50000000000003" y="149.25" as="targetPoint" />
            <Array as="points">
              <mxPoint x="15.500000000000028" y="149.25" />
            </Array>
          </mxGeometry>
        </mxCell>
        <mxCell id="e0J9FLYbTgoCGfD9f5cc-23" value="" style="rounded=1;whiteSpace=wrap;html=1;fillColor=#d5e8d4;strokeColor=#82b366;" parent="1" vertex="1">
          <mxGeometry x="10.330000000000013" y="144.32999999999998" width="10" height="10" as="geometry" />
        </mxCell>
        <mxCell id="e0J9FLYbTgoCGfD9f5cc-24" value="" style="rounded=1;whiteSpace=wrap;html=1;fillColor=#d5e8d4;strokeColor=#82b366;" parent="1" vertex="1">
          <mxGeometry x="31.659999999999997" y="144.32999999999998" width="10" height="10" as="geometry" />
        </mxCell>
        <mxCell id="e0J9FLYbTgoCGfD9f5cc-46" value="&lt;div style=&quot;font-size: 8px;&quot; align=&quot;center&quot;&gt;&lt;font style=&quot;font-size: 8px;&quot;&gt;Invoker N&lt;br&gt;&lt;/font&gt;&lt;/div&gt;&lt;div style=&quot;font-size: 8px;&quot; align=&quot;center&quot;&gt;&lt;font style=&quot;font-size: 8px;&quot;&gt;&lt;br&gt;&lt;/font&gt;&lt;/div&gt;&lt;div style=&quot;font-size: 9px;&quot; align=&quot;center&quot;&gt;&lt;font style=&quot;font-size: 9px;&quot;&gt;&lt;br&gt;&lt;/font&gt;&lt;/div&gt;&lt;div style=&quot;font-size: 9px;&quot; align=&quot;center&quot;&gt;&lt;font style=&quot;font-size: 9px;&quot;&gt;&lt;br&gt;&lt;/font&gt;&lt;/div&gt;&lt;div style=&quot;font-size: 9px;&quot; align=&quot;center&quot;&gt;&lt;font style=&quot;font-size: 9px;&quot;&gt;&lt;br&gt;&lt;/font&gt;&lt;/div&gt;&lt;div style=&quot;font-size: 9px;&quot; align=&quot;center&quot;&gt;&lt;font style=&quot;font-size: 9px;&quot;&gt;&lt;br&gt;&lt;/font&gt;&lt;/div&gt;" style="rounded=0;whiteSpace=wrap;html=1;fillColor=#f8cecc;strokeColor=#b85450;fontFamily=Linux Libertine;fontSource=https%3A%2F%2Ffonts.googleapis.com%2Fcss%3Ffamily%3DLinux%2BLibertine;align=center;fontColor=#B85450;direction=north;" parent="1" vertex="1">
          <mxGeometry x="98.58000000000004" y="100" width="44" height="65" as="geometry" />
        </mxCell>
        <mxCell id="e0J9FLYbTgoCGfD9f5cc-47" value="" style="rounded=1;whiteSpace=wrap;html=1;strokeColor=#666666;fillColor=#999999;direction=south;" parent="1" vertex="1">
          <mxGeometry x="100.83000000000004" y="114.74000000000001" width="39.5" height="45.09" as="geometry" />
        </mxCell>
        <mxCell id="e0J9FLYbTgoCGfD9f5cc-48" value="" style="rounded=1;whiteSpace=wrap;html=1;strokeColor=#2496ED;fillColor=#A9C4EB;direction=south;" parent="1" vertex="1">
          <mxGeometry x="100.83000000000004" y="125.41" width="39.5" height="35.09" as="geometry" />
        </mxCell>
        <mxCell id="e0J9FLYbTgoCGfD9f5cc-50" value="" style="endArrow=none;html=1;rounded=1;strokeColor=#999999;dashed=1;dashPattern=1 1;curved=0;" parent="1" edge="1">
          <mxGeometry width="50" height="50" relative="1" as="geometry">
            <mxPoint x="120.58000000000004" y="135.31" as="sourcePoint" />
            <mxPoint x="130.58000000000004" y="135.31" as="targetPoint" />
            <Array as="points">
              <mxPoint x="110.58000000000004" y="135.31" />
            </Array>
          </mxGeometry>
        </mxCell>
        <mxCell id="e0J9FLYbTgoCGfD9f5cc-51" value="" style="endArrow=none;html=1;rounded=1;strokeColor=#999999;dashed=1;dashPattern=1 1;curved=0;" parent="1" edge="1">
          <mxGeometry width="50" height="50" relative="1" as="geometry">
            <mxPoint x="121.15999999999997" y="149.24999999999997" as="sourcePoint" />
            <mxPoint x="131.15999999999997" y="149.24999999999997" as="targetPoint" />
            <Array as="points">
              <mxPoint x="111.15999999999997" y="149.24999999999997" />
            </Array>
          </mxGeometry>
        </mxCell>
        <mxCell id="e0J9FLYbTgoCGfD9f5cc-53" value="" style="endArrow=none;html=1;rounded=0;strokeColor=#000000;curved=0;dashed=1;dashPattern=1 1;" parent="1" edge="1">
          <mxGeometry width="50" height="50" relative="1" as="geometry">
            <mxPoint x="120.5" y="167.83" as="sourcePoint" />
            <mxPoint x="120.5" y="134.73999999999998" as="targetPoint" />
          </mxGeometry>
        </mxCell>
        <mxCell id="e0J9FLYbTgoCGfD9f5cc-54" value="" style="endArrow=none;html=1;rounded=1;strokeColor=#000000;dashed=1;dashPattern=1 1;curved=0;" parent="1" edge="1">
          <mxGeometry width="50" height="50" relative="1" as="geometry">
            <mxPoint x="119.58000000000004" y="135.31" as="sourcePoint" />
            <mxPoint x="129.58000000000004" y="135.31" as="targetPoint" />
            <Array as="points">
              <mxPoint x="109.58000000000004" y="135.31" />
            </Array>
          </mxGeometry>
        </mxCell>
        <mxCell id="e0J9FLYbTgoCGfD9f5cc-55" value="" style="rounded=1;whiteSpace=wrap;html=1;fillColor=#d5e8d4;strokeColor=#82b366;" parent="1" vertex="1">
          <mxGeometry x="104.83000000000004" y="130.41" width="10" height="10" as="geometry" />
        </mxCell>
        <mxCell id="e0J9FLYbTgoCGfD9f5cc-56" value="" style="rounded=1;whiteSpace=wrap;html=1;fillColor=#d5e8d4;strokeColor=#82b366;" parent="1" vertex="1">
          <mxGeometry x="126.15999999999997" y="130.41" width="10" height="10" as="geometry" />
        </mxCell>
        <mxCell id="e0J9FLYbTgoCGfD9f5cc-57" value="" style="endArrow=none;html=1;rounded=1;strokeColor=#000000;dashed=1;dashPattern=1 1;curved=0;" parent="1" edge="1">
          <mxGeometry width="50" height="50" relative="1" as="geometry">
            <mxPoint x="120.00000000000011" y="149.25" as="sourcePoint" />
            <mxPoint x="130.0000000000001" y="149.25" as="targetPoint" />
            <Array as="points">
              <mxPoint x="110.00000000000011" y="149.25" />
            </Array>
          </mxGeometry>
        </mxCell>
        <mxCell id="e0J9FLYbTgoCGfD9f5cc-58" value="" style="rounded=1;whiteSpace=wrap;html=1;fillColor=#d5e8d4;strokeColor=#82b366;" parent="1" vertex="1">
          <mxGeometry x="104.83000000000004" y="144.32999999999998" width="10" height="10" as="geometry" />
        </mxCell>
        <mxCell id="e0J9FLYbTgoCGfD9f5cc-59" value="" style="rounded=1;whiteSpace=wrap;html=1;fillColor=#d5e8d4;strokeColor=#82b366;" parent="1" vertex="1">
          <mxGeometry x="126.15999999999997" y="144.32999999999998" width="10" height="10" as="geometry" />
        </mxCell>
        <mxCell id="e0J9FLYbTgoCGfD9f5cc-43" value="" style="endArrow=none;html=1;rounded=0;strokeColor=#000000;curved=0;dashed=1;dashPattern=1 1;" parent="1" edge="1">
          <mxGeometry width="50" height="50" relative="1" as="geometry">
            <mxPoint x="26.130000000000024" y="169.83" as="sourcePoint" />
            <mxPoint x="25.99999999999997" y="134.73999999999998" as="targetPoint" />
          </mxGeometry>
        </mxCell>
        <mxCell id="e0J9FLYbTgoCGfD9f5cc-49" value="" style="endArrow=none;html=1;rounded=0;strokeColor=#999999;curved=0;dashed=1;dashPattern=1 1;" parent="1" edge="1">
          <mxGeometry width="50" height="50" relative="1" as="geometry">
            <mxPoint x="120.5" y="148.83" as="sourcePoint" />
            <mxPoint x="120.5" y="115.73999999999998" as="targetPoint" />
          </mxGeometry>
        </mxCell>
        <mxCell id="e0J9FLYbTgoCGfD9f5cc-60" value="...&lt;br&gt;&lt;br&gt;&lt;br&gt;&lt;div&gt;&lt;br&gt;&lt;/div&gt;&lt;div&gt;&lt;br&gt;&lt;/div&gt;" style="rounded=0;whiteSpace=wrap;html=1;fillColor=#f8cecc;strokeColor=#b85450;fontFamily=Linux Libertine;fontSource=https%3A%2F%2Ffonts.googleapis.com%2Fcss%3Ffamily%3DLinux%2BLibertine;align=center;fontColor=#B85450;direction=north;" parent="1" vertex="1">
          <mxGeometry x="51.58000000000001" y="100" width="44" height="65" as="geometry" />
        </mxCell>
        <mxCell id="e0J9FLYbTgoCGfD9f5cc-61" value="" style="rounded=1;whiteSpace=wrap;html=1;strokeColor=#666666;fillColor=#999999;direction=south;" parent="1" vertex="1">
          <mxGeometry x="53.83000000000001" y="114.74000000000001" width="39.5" height="45.09" as="geometry" />
        </mxCell>
        <mxCell id="e0J9FLYbTgoCGfD9f5cc-62" value="" style="rounded=1;whiteSpace=wrap;html=1;strokeColor=#2496ED;fillColor=#A9C4EB;direction=south;" parent="1" vertex="1">
          <mxGeometry x="53.83000000000001" y="125.41" width="39.5" height="35.09" as="geometry" />
        </mxCell>
        <mxCell id="e0J9FLYbTgoCGfD9f5cc-63" value="" style="endArrow=none;html=1;rounded=1;strokeColor=#999999;dashed=1;dashPattern=1 1;curved=0;" parent="1" edge="1">
          <mxGeometry width="50" height="50" relative="1" as="geometry">
            <mxPoint x="73.58000000000004" y="135.31" as="sourcePoint" />
            <mxPoint x="83.58000000000004" y="135.31" as="targetPoint" />
            <Array as="points">
              <mxPoint x="63.58000000000001" y="135.31" />
            </Array>
          </mxGeometry>
        </mxCell>
        <mxCell id="e0J9FLYbTgoCGfD9f5cc-64" value="" style="endArrow=none;html=1;rounded=1;strokeColor=#999999;dashed=1;dashPattern=1 1;curved=0;" parent="1" edge="1">
          <mxGeometry width="50" height="50" relative="1" as="geometry">
            <mxPoint x="74.15999999999997" y="149.24999999999997" as="sourcePoint" />
            <mxPoint x="84.15999999999997" y="149.24999999999997" as="targetPoint" />
            <Array as="points">
              <mxPoint x="64.15999999999994" y="149.24999999999997" />
            </Array>
          </mxGeometry>
        </mxCell>
        <mxCell id="e0J9FLYbTgoCGfD9f5cc-66" value="" style="endArrow=none;html=1;rounded=0;strokeColor=#000000;curved=0;dashed=1;dashPattern=1 1;" parent="1" edge="1">
          <mxGeometry width="50" height="50" relative="1" as="geometry">
            <mxPoint x="73.5" y="167.83" as="sourcePoint" />
            <mxPoint x="73.5" y="134.73999999999998" as="targetPoint" />
          </mxGeometry>
        </mxCell>
        <mxCell id="e0J9FLYbTgoCGfD9f5cc-67" value="" style="endArrow=none;html=1;rounded=1;strokeColor=#000000;dashed=1;dashPattern=1 1;curved=0;" parent="1" edge="1">
          <mxGeometry width="50" height="50" relative="1" as="geometry">
            <mxPoint x="72.58000000000004" y="135.31" as="sourcePoint" />
            <mxPoint x="82.58000000000004" y="135.31" as="targetPoint" />
            <Array as="points">
              <mxPoint x="62.58000000000001" y="135.31" />
            </Array>
          </mxGeometry>
        </mxCell>
        <mxCell id="e0J9FLYbTgoCGfD9f5cc-68" value="" style="rounded=1;whiteSpace=wrap;html=1;fillColor=#d5e8d4;strokeColor=#82b366;" parent="1" vertex="1">
          <mxGeometry x="57.83000000000001" y="130.41" width="10" height="10" as="geometry" />
        </mxCell>
        <mxCell id="e0J9FLYbTgoCGfD9f5cc-69" value="" style="rounded=1;whiteSpace=wrap;html=1;fillColor=#d5e8d4;strokeColor=#82b366;" parent="1" vertex="1">
          <mxGeometry x="79.15999999999997" y="130.41" width="10" height="10" as="geometry" />
        </mxCell>
        <mxCell id="e0J9FLYbTgoCGfD9f5cc-70" value="" style="endArrow=none;html=1;rounded=1;strokeColor=#000000;dashed=1;dashPattern=1 1;curved=0;" parent="1" edge="1">
          <mxGeometry width="50" height="50" relative="1" as="geometry">
            <mxPoint x="73.00000000000011" y="149.25" as="sourcePoint" />
            <mxPoint x="83.00000000000011" y="149.25" as="targetPoint" />
            <Array as="points">
              <mxPoint x="63.000000000000085" y="149.25" />
            </Array>
          </mxGeometry>
        </mxCell>
        <mxCell id="e0J9FLYbTgoCGfD9f5cc-71" value="" style="rounded=1;whiteSpace=wrap;html=1;fillColor=#d5e8d4;strokeColor=#82b366;" parent="1" vertex="1">
          <mxGeometry x="57.83000000000001" y="144.32999999999998" width="10" height="10" as="geometry" />
        </mxCell>
        <mxCell id="e0J9FLYbTgoCGfD9f5cc-72" value="" style="rounded=1;whiteSpace=wrap;html=1;fillColor=#d5e8d4;strokeColor=#82b366;" parent="1" vertex="1">
          <mxGeometry x="79.15999999999997" y="144.32999999999998" width="10" height="10" as="geometry" />
        </mxCell>
        <mxCell id="e0J9FLYbTgoCGfD9f5cc-73" value="" style="endArrow=none;html=1;rounded=0;strokeColor=#999999;curved=0;dashed=1;dashPattern=1 1;" parent="1" edge="1">
          <mxGeometry width="50" height="50" relative="1" as="geometry">
            <mxPoint x="73.5" y="148.83" as="sourcePoint" />
            <mxPoint x="73.5" y="115.73999999999998" as="targetPoint" />
          </mxGeometry>
        </mxCell>
        <mxCell id="e0J9FLYbTgoCGfD9f5cc-75" value="" style="rounded=0;whiteSpace=wrap;html=1;strokeColor=none;fillColor=#fff2cc;" parent="1" vertex="1">
          <mxGeometry x="15.500000000000028" y="166" width="26" height="10" as="geometry" />
        </mxCell>
        <mxCell id="e0J9FLYbTgoCGfD9f5cc-14" style="edgeStyle=orthogonalEdgeStyle;rounded=0;orthogonalLoop=1;jettySize=auto;html=1;entryX=0;entryY=0.5;entryDx=0;entryDy=0;curved=1;startArrow=none;startFill=0;exitX=1;exitY=0.5;exitDx=0;exitDy=0;strokeWidth=1;endArrow=none;endFill=0;dashed=1;dashPattern=1 1;" parent="1" source="WiIBReAVdP6lDB38uRff-113" target="e0J9FLYbTgoCGfD9f5cc-91" edge="1">
          <mxGeometry relative="1" as="geometry">
            <mxPoint x="52.96000000000012" y="194" as="targetPoint" />
            <Array as="points">
              <mxPoint x="26" y="188" />
              <mxPoint x="37" y="188" />
            </Array>
          </mxGeometry>
        </mxCell>
        <mxCell id="e0J9FLYbTgoCGfD9f5cc-76" value="" style="rounded=0;whiteSpace=wrap;html=1;strokeColor=none;fillColor=#fff2cc;" parent="1" vertex="1">
          <mxGeometry x="65.00000000000009" y="165.99999999999997" width="26" height="10" as="geometry" />
        </mxCell>
        <mxCell id="e0J9FLYbTgoCGfD9f5cc-74" style="edgeStyle=orthogonalEdgeStyle;rounded=0;orthogonalLoop=1;jettySize=auto;html=1;entryX=1;entryY=0.5;entryDx=0;entryDy=0;startArrow=none;startFill=0;strokeWidth=1;endArrow=none;endFill=0;dashed=1;dashPattern=1 1;strokeColor=#000000;exitX=0.5;exitY=0;exitDx=0;exitDy=0;" parent="1" source="e0J9FLYbTgoCGfD9f5cc-91" target="e0J9FLYbTgoCGfD9f5cc-62" edge="1">
          <mxGeometry relative="1" as="geometry">
            <mxPoint x="74.58000000000004" y="159.83" as="targetPoint" />
            <mxPoint x="73.58000000000004" y="179.83" as="sourcePoint" />
            <Array as="points">
              <mxPoint x="73.33000000000004" y="176" />
            </Array>
          </mxGeometry>
        </mxCell>
        <mxCell id="e0J9FLYbTgoCGfD9f5cc-77" value="" style="rounded=0;whiteSpace=wrap;html=1;strokeColor=none;fillColor=#fff2cc;" parent="1" vertex="1">
          <mxGeometry x="107.58000000000015" y="165.99999999999997" width="26" height="10" as="geometry" />
        </mxCell>
        <mxCell id="e0J9FLYbTgoCGfD9f5cc-15" style="edgeStyle=orthogonalEdgeStyle;rounded=0;orthogonalLoop=1;jettySize=auto;html=1;entryX=1;entryY=0.5;entryDx=0;entryDy=0;curved=1;startArrow=none;startFill=0;strokeWidth=1;exitX=1;exitY=0.5;exitDx=0;exitDy=0;endArrow=none;endFill=0;dashed=1;dashPattern=1 1;" parent="1" source="e0J9FLYbTgoCGfD9f5cc-48" target="e0J9FLYbTgoCGfD9f5cc-91" edge="1">
          <mxGeometry relative="1" as="geometry">
            <mxPoint x="119.33000000000004" y="170" as="sourcePoint" />
            <mxPoint x="94.21000000000015" y="194" as="targetPoint" />
            <Array as="points">
              <mxPoint x="121" y="188" />
              <mxPoint x="110" y="188" />
            </Array>
          </mxGeometry>
        </mxCell>
        <mxCell id="e0J9FLYbTgoCGfD9f5cc-65" value="&lt;font style=&quot;font-size: 6px;&quot; data-font-src=&quot;https://fonts.googleapis.com/css?family=Linux+Libertine&quot; face=&quot;Linux Libertine&quot;&gt;shm&lt;/font&gt;" style="text;html=1;align=center;verticalAlign=middle;whiteSpace=wrap;rounded=0;" parent="1" vertex="1">
          <mxGeometry x="62.99999999999997" y="114.74000000000001" width="21.16" height="10" as="geometry" />
        </mxCell>
        <mxCell id="e0J9FLYbTgoCGfD9f5cc-52" value="&lt;font style=&quot;font-size: 6px;&quot; data-font-src=&quot;https://fonts.googleapis.com/css?family=Linux+Libertine&quot; face=&quot;Linux Libertine&quot;&gt;shm&lt;/font&gt;" style="text;html=1;align=center;verticalAlign=middle;whiteSpace=wrap;rounded=0;" parent="1" vertex="1">
          <mxGeometry x="110" y="114.74000000000001" width="21.16" height="10" as="geometry" />
        </mxCell>
        <mxCell id="e0J9FLYbTgoCGfD9f5cc-84" value="" style="endArrow=classic;html=1;rounded=0;entryX=0.387;entryY=0;entryDx=0;entryDy=0;entryPerimeter=0;strokeColor=#0000CC;" parent="1" edge="1">
          <mxGeometry width="50" height="50" relative="1" as="geometry">
            <mxPoint x="63.33000000000001" y="30" as="sourcePoint" />
            <mxPoint x="63.34099999999998" y="60" as="targetPoint" />
          </mxGeometry>
        </mxCell>
        <mxCell id="e0J9FLYbTgoCGfD9f5cc-85" value="" style="endArrow=classic;html=1;rounded=0;entryX=0.387;entryY=0;entryDx=0;entryDy=0;entryPerimeter=0;strokeColor=#0000CC;" parent="1" edge="1">
          <mxGeometry width="50" height="50" relative="1" as="geometry">
            <mxPoint x="83.75999999999999" y="30" as="sourcePoint" />
            <mxPoint x="83.77099999999996" y="60" as="targetPoint" />
          </mxGeometry>
        </mxCell>
        <mxCell id="e0J9FLYbTgoCGfD9f5cc-91" value="" style="rounded=1;whiteSpace=wrap;html=1;fillColor=#e1d5e7;strokeColor=#9673a6;" parent="1" vertex="1">
          <mxGeometry x="36.71" y="176" width="73.75" height="23" as="geometry" />
        </mxCell>
        <mxCell id="e0J9FLYbTgoCGfD9f5cc-92" value="" style="ellipse;whiteSpace=wrap;html=1;aspect=fixed;fillColor=#33FFFF;strokeColor=#0000CC;" parent="1" vertex="1">
          <mxGeometry x="6.3300000000000125" y="36" width="11" height="11" as="geometry" />
        </mxCell>
        <mxCell id="e0J9FLYbTgoCGfD9f5cc-93" value="&lt;font style=&quot;font-size: 9px;&quot; color=&quot;#0000cc&quot;&gt;1&lt;/font&gt;" style="text;whiteSpace=wrap;html=1;" parent="1" vertex="1">
          <mxGeometry x="7.3300000000000125" y="28" width="11" height="20" as="geometry" />
        </mxCell>
        <mxCell id="e0J9FLYbTgoCGfD9f5cc-97" value="" style="ellipse;whiteSpace=wrap;html=1;aspect=fixed;fillColor=#33FFFF;strokeColor=#0000CC;" parent="1" vertex="1">
          <mxGeometry x="91.83000000000004" y="36" width="11" height="11" as="geometry" />
        </mxCell>
        <mxCell id="e0J9FLYbTgoCGfD9f5cc-98" value="&lt;font style=&quot;font-size: 9px;&quot; color=&quot;#0000cc&quot;&gt;2&lt;/font&gt;" style="text;whiteSpace=wrap;html=1;" parent="1" vertex="1">
          <mxGeometry x="92.83000000000004" y="28" width="11" height="20" as="geometry" />
        </mxCell>
        <mxCell id="e0J9FLYbTgoCGfD9f5cc-99" value="&lt;font color=&quot;#9673a6&quot; style=&quot;font-size: 7px;&quot;&gt;&lt;font style=&quot;font-size: 7px;&quot; data-font-src=&quot;https://fonts.googleapis.com/css?family=Linux+Libertine&quot; face=&quot;Linux Libertine&quot;&gt;Communication&lt;br&gt;&lt;br&gt;&lt;/font&gt;&lt;/font&gt;" style="text;whiteSpace=wrap;html=1;align=center;" parent="1" vertex="1">
          <mxGeometry x="43.59000000000001" y="168" width="60" height="20" as="geometry" />
        </mxCell>
        <mxCell id="e0J9FLYbTgoCGfD9f5cc-100" value="&lt;font style=&quot;font-size: 7px;&quot; color=&quot;#9673a6&quot;&gt;&lt;font face=&quot;Linux Libertine&quot; data-font-src=&quot;https://fonts.googleapis.com/css?family=Linux+Libertine&quot; style=&quot;font-size: 7px;&quot;&gt;middleware&lt;/font&gt;&lt;/font&gt;" style="text;whiteSpace=wrap;html=1;align=center;" parent="1" vertex="1">
          <mxGeometry x="48.59000000000001" y="178" width="50" height="10" as="geometry" />
        </mxCell>
      </root>
    </mxGraphModel>
  </diagram>
  <diagram name="arch" id="cZ444mW0rCcB-Ek93cNb">
    <mxGraphModel dx="576" dy="232" grid="1" gridSize="5" guides="1" tooltips="1" connect="1" arrows="1" fold="1" page="1" pageScale="1" pageWidth="330" pageHeight="180" math="0" shadow="0">
      <root>
        <mxCell id="wFOPVawVf57aqnRhElUE-0" />
        <mxCell id="wFOPVawVf57aqnRhElUE-1" parent="wFOPVawVf57aqnRhElUE-0" />
        <mxCell id="wFOPVawVf57aqnRhElUE-4" value="Burst platform" style="rounded=1;whiteSpace=wrap;html=1;fillColor=#fff2cc;arcSize=6;fillStyle=auto;strokeColor=#d6b656;fontFamily=Linux Libertine;fontSize=10;verticalAlign=top;spacing=-2;fontColor=default;" parent="wFOPVawVf57aqnRhElUE-1" vertex="1">
          <mxGeometry x="85" y="5" width="210" height="140" as="geometry" />
        </mxCell>
        <mxCell id="wFOPVawVf57aqnRhElUE-2" value="&lt;font data-font-src=&quot;https://fonts.googleapis.com/css?family=Linux+Libertine&quot; style=&quot;font-size: 10px;&quot;&gt;deploy()&lt;/font&gt;" style="text;html=1;align=left;verticalAlign=middle;whiteSpace=wrap;rounded=0;fontSize=10;fontFamily=Linux Libertine;spacing=0;spacingBottom=1;" parent="wFOPVawVf57aqnRhElUE-1" vertex="1">
          <mxGeometry x="50" y="32.26" width="30" height="15" as="geometry" />
        </mxCell>
        <mxCell id="wFOPVawVf57aqnRhElUE-5" value="&lt;div style=&quot;font-size: 10px; line-height: 100%;&quot; align=&quot;center&quot;&gt;&lt;br style=&quot;font-size: 10px;&quot;&gt;&lt;/div&gt;" style="rounded=0;whiteSpace=wrap;html=1;fillColor=#f8cecc;strokeColor=#b85450;fontFamily=Linux Libertine;align=center;fontColor=#000000;direction=north;fontSize=10;verticalAlign=top;spacing=-2;horizontal=0;" parent="wFOPVawVf57aqnRhElUE-1" vertex="1">
          <mxGeometry x="135" y="20" width="155" height="70" as="geometry" />
        </mxCell>
        <mxCell id="wFOPVawVf57aqnRhElUE-6" value="" style="shape=image;verticalLabelPosition=bottom;labelBackgroundColor=default;verticalAlign=top;aspect=fixed;imageAspect=0;image=https://cdn-icons-png.flaticon.com/512/4703/4703650.png;fontFamily=Linux Libertine;fontSize=10;" parent="wFOPVawVf57aqnRhElUE-1" vertex="1">
          <mxGeometry x="5.000000000000014" y="49.26000000000001" width="30" height="30" as="geometry" />
        </mxCell>
        <mxCell id="wFOPVawVf57aqnRhElUE-9" style="rounded=0;orthogonalLoop=1;jettySize=auto;html=1;strokeWidth=0.5;fontFamily=Linux Libertine;fontSize=10;" parent="wFOPVawVf57aqnRhElUE-1" source="wFOPVawVf57aqnRhElUE-11" target="wFOPVawVf57aqnRhElUE-37" edge="1">
          <mxGeometry relative="1" as="geometry">
            <mxPoint x="204.25000000000003" y="110" as="targetPoint" />
          </mxGeometry>
        </mxCell>
        <mxCell id="wFOPVawVf57aqnRhElUE-11" value="&lt;div align=&quot;center&quot; style=&quot;font-size: 10px;&quot;&gt;&lt;font style=&quot;font-size: 10px;&quot;&gt;Controller&lt;/font&gt;&lt;/div&gt;" style="rounded=0;whiteSpace=wrap;html=1;fillColor=#ffe6cc;strokeColor=#d79b00;align=center;fontFamily=Linux Libertine;fontSize=10;direction=south;horizontal=0;fontColor=#000000;spacingBottom=2;" parent="wFOPVawVf57aqnRhElUE-1" vertex="1">
          <mxGeometry x="85" y="39.830000000000005" width="20" height="50.17" as="geometry" />
        </mxCell>
        <mxCell id="wFOPVawVf57aqnRhElUE-23" value="&lt;div style=&quot;font-size: 10px; line-height: 100%;&quot; align=&quot;center&quot;&gt;&lt;br style=&quot;font-size: 10px;&quot;&gt;&lt;/div&gt;" style="rounded=0;whiteSpace=wrap;html=1;fillColor=#f8cecc;strokeColor=#b85450;fontFamily=Linux Libertine;align=center;fontColor=#000000;direction=north;fontSize=10;verticalAlign=top;spacing=-2;horizontal=0;" parent="wFOPVawVf57aqnRhElUE-1" vertex="1">
          <mxGeometry x="130" y="25" width="155" height="70" as="geometry" />
        </mxCell>
        <mxCell id="wFOPVawVf57aqnRhElUE-37" value="Invokers" style="rounded=0;whiteSpace=wrap;html=1;fillColor=#f8cecc;strokeColor=#b85450;align=center;direction=north;verticalAlign=top;labelPosition=center;verticalLabelPosition=middle;spacing=-2;fontFamily=Linux Libertine;fontColor=#000000;horizontal=0;fontSize=10;" parent="wFOPVawVf57aqnRhElUE-1" vertex="1">
          <mxGeometry x="125" y="30" width="155" height="70" as="geometry" />
        </mxCell>
        <mxCell id="wFOPVawVf57aqnRhElUE-58" value="" style="endArrow=classic;html=1;rounded=0;strokeColor=#0000CC;fontFamily=Linux Libertine;fontSize=10;" parent="wFOPVawVf57aqnRhElUE-1" edge="1">
          <mxGeometry width="50" height="50" relative="1" as="geometry">
            <mxPoint x="40" y="74.51999999999998" as="sourcePoint" />
            <mxPoint x="80" y="74.51999999999998" as="targetPoint" />
          </mxGeometry>
        </mxCell>
        <mxCell id="wFOPVawVf57aqnRhElUE-59" value="" style="endArrow=classic;html=1;rounded=0;strokeColor=#0000CC;fontFamily=Linux Libertine;fontSize=10;" parent="wFOPVawVf57aqnRhElUE-1" edge="1">
          <mxGeometry width="50" height="50" relative="1" as="geometry">
            <mxPoint x="40" y="54.52" as="sourcePoint" />
            <mxPoint x="80" y="54.52" as="targetPoint" />
          </mxGeometry>
        </mxCell>
        <mxCell id="wFOPVawVf57aqnRhElUE-60" value="Remote communication backend" style="rounded=1;whiteSpace=wrap;html=1;fillColor=#e1d5e7;strokeColor=#9673a6;fontFamily=Linux Libertine;fontSize=10;horizontal=0;spacingBottom=2;" parent="wFOPVawVf57aqnRhElUE-1" vertex="1">
          <mxGeometry x="305" y="5" width="20" height="140" as="geometry" />
        </mxCell>
        <mxCell id="wFOPVawVf57aqnRhElUE-61" value="1" style="ellipse;whiteSpace=wrap;html=1;aspect=fixed;fillColor=#A9C4EB;strokeColor=#000000;fontFamily=Linux Libertine;fontSize=11;spacingBottom=1;strokeWidth=0.5;" parent="wFOPVawVf57aqnRhElUE-1" vertex="1">
          <mxGeometry x="35.000000000000014" y="34.26000000000001" width="11" height="11" as="geometry" />
        </mxCell>
        <mxCell id="wFOPVawVf57aqnRhElUE-63" value="3" style="ellipse;whiteSpace=wrap;html=1;aspect=fixed;fillColor=#A9C4EB;strokeColor=#000000;fontFamily=Linux Libertine;fontSize=11;spacingBottom=1;strokeWidth=0.5;" parent="wFOPVawVf57aqnRhElUE-1" vertex="1">
          <mxGeometry x="35.00000000000004" y="84.25999999999996" width="11" height="11" as="geometry" />
        </mxCell>
        <mxCell id="wFOPVawVf57aqnRhElUE-3" value="&lt;font data-font-src=&quot;https://fonts.googleapis.com/css?family=Linux+Libertine&quot; style=&quot;font-size: 10px;&quot;&gt;flare()&lt;/font&gt;" style="text;html=1;align=left;verticalAlign=middle;whiteSpace=wrap;rounded=0;fontSize=10;fontFamily=Linux Libertine;spacing=0;spacingBottom=1;" parent="wFOPVawVf57aqnRhElUE-1" vertex="1">
          <mxGeometry x="50" y="82.25999999999999" width="30" height="15" as="geometry" />
        </mxCell>
        <mxCell id="wnx-w0GM1ffGaocuh8BO-0" value="Pack &lt;i style=&quot;font-size: 10px;&quot;&gt;i&lt;/i&gt;" style="rounded=1;whiteSpace=wrap;html=1;strokeColor=#82b366;fillColor=#d5e8d4;direction=south;fontFamily=Linux Libertine;fontSize=10;verticalAlign=top;spacing=-3;" parent="wFOPVawVf57aqnRhElUE-1" vertex="1">
          <mxGeometry x="190" y="35" width="85" height="60" as="geometry" />
        </mxCell>
        <mxCell id="wnx-w0GM1ffGaocuh8BO-6" value="Pack&lt;div style=&quot;font-size: 10px;&quot;&gt;(another burst)&lt;/div&gt;" style="rounded=1;whiteSpace=wrap;html=1;strokeColor=#666666;fillColor=#f5f5f5;direction=south;fontFamily=Linux Libertine;fontSize=10;verticalAlign=middle;spacing=-3;fontColor=#333333;horizontal=1;" parent="wFOPVawVf57aqnRhElUE-1" vertex="1">
          <mxGeometry x="142.5" y="35" width="42.5" height="60" as="geometry" />
        </mxCell>
        <mxCell id="wnx-w0GM1ffGaocuh8BO-7" value="BCM" style="rounded=1;whiteSpace=wrap;html=1;fillColor=#e1d5e7;strokeColor=#9673a6;fontFamily=Linux Libertine;fontSize=10;horizontal=1;spacingBottom=2;" parent="wFOPVawVf57aqnRhElUE-1" vertex="1">
          <mxGeometry x="5" y="150" width="25" height="10" as="geometry" />
        </mxCell>
        <mxCell id="wnx-w0GM1ffGaocuh8BO-8" value="Burst communication middleware" style="text;html=1;align=left;verticalAlign=middle;whiteSpace=wrap;rounded=0;fontSize=10;fontFamily=Linux Libertine;spacing=0;" parent="wFOPVawVf57aqnRhElUE-1" vertex="1">
          <mxGeometry x="35" y="150" width="145" height="10" as="geometry" />
        </mxCell>
        <mxCell id="wnx-w0GM1ffGaocuh8BO-10" value="Shared memory" style="text;html=1;align=left;verticalAlign=middle;whiteSpace=wrap;rounded=0;fontSize=10;fontFamily=Linux Libertine;spacing=0;" parent="wFOPVawVf57aqnRhElUE-1" vertex="1">
          <mxGeometry x="35" y="165" width="145" height="10" as="geometry" />
        </mxCell>
        <mxCell id="wnx-w0GM1ffGaocuh8BO-12" value="" style="rounded=1;whiteSpace=wrap;html=1;dashed=1;dashPattern=1 1;fillColor=none;fontFamily=Linux Libertine;fontSize=10;" parent="wFOPVawVf57aqnRhElUE-1" vertex="1">
          <mxGeometry x="5" y="165" width="25" height="10" as="geometry" />
        </mxCell>
        <mxCell id="wnx-w0GM1ffGaocuh8BO-13" value="" style="rounded=1;whiteSpace=wrap;html=1;dashed=1;dashPattern=1 1;fillColor=none;fontFamily=Linux Libertine;fontSize=10;" parent="wFOPVawVf57aqnRhElUE-1" vertex="1">
          <mxGeometry x="195" y="50" width="75" height="40" as="geometry" />
        </mxCell>
        <mxCell id="wnx-w0GM1ffGaocuh8BO-1" value="" style="rounded=1;whiteSpace=wrap;html=1;strokeColor=#2496ED;fillColor=#A9C4EB;direction=south;fontFamily=Linux Libertine;fontSize=10;" parent="wFOPVawVf57aqnRhElUE-1" vertex="1">
          <mxGeometry x="210" y="55" width="35" height="20" as="geometry" />
        </mxCell>
        <mxCell id="wnx-w0GM1ffGaocuh8BO-4" value="" style="rounded=1;whiteSpace=wrap;html=1;strokeColor=#2496ED;fillColor=#A9C4EB;direction=south;fontFamily=Linux Libertine;fontSize=10;" parent="wFOPVawVf57aqnRhElUE-1" vertex="1">
          <mxGeometry x="205" y="59.26" width="35" height="20" as="geometry" />
        </mxCell>
        <mxCell id="wnx-w0GM1ffGaocuh8BO-3" value="Workers" style="rounded=1;whiteSpace=wrap;html=1;strokeColor=#2496ED;fillColor=#A9C4EB;direction=south;fontFamily=Linux Libertine;fontSize=10;" parent="wFOPVawVf57aqnRhElUE-1" vertex="1">
          <mxGeometry x="200" y="64.26" width="35" height="20" as="geometry" />
        </mxCell>
        <mxCell id="wnx-w0GM1ffGaocuh8BO-2" value="BCM" style="rounded=1;whiteSpace=wrap;html=1;fillColor=#e1d5e7;strokeColor=#9673a6;fontFamily=Linux Libertine;fontSize=10;horizontal=0;spacingBottom=1;" parent="wFOPVawVf57aqnRhElUE-1" vertex="1">
          <mxGeometry x="250" y="55" width="15" height="30" as="geometry" />
        </mxCell>
        <mxCell id="wnx-w0GM1ffGaocuh8BO-11" value="" style="endArrow=classic;startArrow=classic;html=1;rounded=0;endSize=3;startSize=3;fontFamily=Linux Libertine;fontSize=10;" parent="wFOPVawVf57aqnRhElUE-1" source="wnx-w0GM1ffGaocuh8BO-2" edge="1">
          <mxGeometry width="50" height="50" relative="1" as="geometry">
            <mxPoint x="250" y="120" as="sourcePoint" />
            <mxPoint x="305" y="70" as="targetPoint" />
          </mxGeometry>
        </mxCell>
        <mxCell id="wnx-w0GM1ffGaocuh8BO-14" value="6" style="ellipse;whiteSpace=wrap;html=1;aspect=fixed;fillColor=#A9C4EB;strokeColor=#000000;fontFamily=Linux Libertine;fontSize=11;spacingBottom=1;strokeWidth=0.5;" parent="wFOPVawVf57aqnRhElUE-1" vertex="1">
          <mxGeometry x="279.00000000000006" y="73.99999999999996" width="11" height="11" as="geometry" />
        </mxCell>
        <mxCell id="wnx-w0GM1ffGaocuh8BO-15" value="- Burst definitions&#xa;- Results&#xa;- Metadata" style="strokeWidth=1;shape=mxgraph.flowchart.database;fillColor=#ffe6cc;strokeColor=#d79b00;labelPosition=right;verticalLabelPosition=middle;align=left;verticalAlign=middle;fontSize=10;fontFamily=Linux Libertine;spacing=8;" parent="wFOPVawVf57aqnRhElUE-1" vertex="1">
          <mxGeometry x="146.25" y="110" width="35" height="27" as="geometry" />
        </mxCell>
        <mxCell id="wnx-w0GM1ffGaocuh8BO-16" style="rounded=0;orthogonalLoop=1;jettySize=auto;html=1;strokeWidth=0.5;fontFamily=Linux Libertine;fontSize=10;edgeStyle=orthogonalEdgeStyle;curved=1;" parent="wFOPVawVf57aqnRhElUE-1" source="wFOPVawVf57aqnRhElUE-11" target="wnx-w0GM1ffGaocuh8BO-15" edge="1">
          <mxGeometry relative="1" as="geometry">
            <mxPoint x="130" y="70" as="targetPoint" />
            <mxPoint x="110" y="70" as="sourcePoint" />
            <Array as="points">
              <mxPoint x="95" y="124" />
            </Array>
          </mxGeometry>
        </mxCell>
        <mxCell id="wnx-w0GM1ffGaocuh8BO-17" style="rounded=0;orthogonalLoop=1;jettySize=auto;html=1;strokeWidth=0.5;fontFamily=Linux Libertine;fontSize=10;exitX=1;exitY=0.15;exitDx=0;exitDy=0;exitPerimeter=0;startArrow=classic;startFill=1;" parent="wFOPVawVf57aqnRhElUE-1" source="wnx-w0GM1ffGaocuh8BO-15" target="wnx-w0GM1ffGaocuh8BO-3" edge="1">
          <mxGeometry relative="1" as="geometry">
            <mxPoint x="135" y="75" as="targetPoint" />
            <mxPoint x="115" y="75" as="sourcePoint" />
          </mxGeometry>
        </mxCell>
        <mxCell id="wnx-w0GM1ffGaocuh8BO-18" value="2" style="ellipse;whiteSpace=wrap;html=1;aspect=fixed;fillColor=#A9C4EB;strokeColor=#000000;fontFamily=Linux Libertine;fontSize=11;spacingBottom=1;strokeWidth=0.5;" parent="wFOPVawVf57aqnRhElUE-1" vertex="1">
          <mxGeometry x="100.00000000000004" y="117.99999999999996" width="11" height="11" as="geometry" />
        </mxCell>
        <mxCell id="wnx-w0GM1ffGaocuh8BO-19" value="5" style="ellipse;whiteSpace=wrap;html=1;aspect=fixed;fillColor=#A9C4EB;strokeColor=#000000;fontFamily=Linux Libertine;fontSize=11;spacingBottom=1;strokeWidth=0.5;" parent="wFOPVawVf57aqnRhElUE-1" vertex="1">
          <mxGeometry x="184.00000000000006" y="89.99999999999996" width="11" height="11" as="geometry" />
        </mxCell>
        <mxCell id="wnx-w0GM1ffGaocuh8BO-20" value="4" style="ellipse;whiteSpace=wrap;html=1;aspect=fixed;fillColor=#A9C4EB;strokeColor=#000000;fontFamily=Linux Libertine;fontSize=11;spacingBottom=1;strokeWidth=0.5;" parent="wFOPVawVf57aqnRhElUE-1" vertex="1">
          <mxGeometry x="110.00000000000004" y="49.999999999999964" width="11" height="11" as="geometry" />
        </mxCell>
      </root>
    </mxGraphModel>
  </diagram>
</mxfile>
